# xmcd CD database file
#
# Track frame offsets:
#	150
#	9321
#	22063
#	33923
#	44785
#	54439
#	64487
#	75381
#	85883
#	97313
#	110174
#	120129
#	134980
#	143585
#	155364
#	164318
#	172946
#	183679
#	192904
#	204930
#	214044
#	222706
#	233055
#	246411
#
# Disc length: 3397 seconds
#
# Revision: 1
# Processed by: cddbd v1.4PL0 Copyright (c) Steve Scherf et al.
# Submitted via: CDex 1.51
#
DISCID=5f0d4318
DTITLE=Golden Gate Quartet - A Portait Of The Golden Gate Quartet - CD 1
DYEAR=1998
DGENRE=Jazz
TTITLE0=To the rock
TTITLE1=Massa's in the cold cold ground
TTITLE2=Golden Gate Gospel Train
TTITLE3=Gabriel blows his horn
TTITLE4=Lead me on amd on
TTITLE5=Saints go marching in
TTITLE6=Sweet Adeline
TTITLE7=John the revelator
TTITLE8=Remember me
TTITLE9=Preacher and the bear
TTITLE10=Sampson
TTITLE11=Take your burdens to God
TTITLE12=Travelin' shoes
TTITLE13=Carolina in the morning
TTITLE14=Packing up getting ready to go
TTITLE15=Born ten thousand years ago
TTITLE16=Go where I send thee
TTITLE17=Rock my soul
TTITLE18=Job
TTITLE19=Bonnet
TTITLE20=Pure Religion
TTITLE21=Dipsy doodle
TTITLE22=I was brave
TTITLE23=When they ring the golden bells
EXTD=YEAR: 1998
EXTT0=
EXTT1=
EXTT2=
EXTT3=
EXTT4=
EXTT5=
EXTT6=
EXTT7=
EXTT8=
EXTT9=
EXTT10=
EXTT11=
EXTT12=
EXTT13=
EXTT14=
EXTT15=
EXTT16=
EXTT17=
EXTT18=
EXTT19=
EXTT20=
EXTT21=
EXTT22=
EXTT23=
PLAYORDER=
